<svg id="Layer_1" data-name="Layer 1" xmlns="http://www.w3.org/2000/svg" width="30.31" height="29" viewBox="0 0 30.31 29"><defs><style>.cls-1,.cls-2{fill:#f36;}.cls-1{stroke:#f36;stroke-miterlimit:10;stroke-width:0.75px;}</style></defs><title>brev</title><path class="cls-1" d="M.38,12.13a5,5,0,0,1,.42-.38Q3,10,5.28,8.16a.56.56,0,0,0,.24-.49c0-1.47,0-2.94,0-4.42,0-.46.13-.59.61-.59,1.91,0,3.83,0,5.74,0a.85.85,0,0,0,.49-.17c.79-.61,1.57-1.24,2.35-1.87.4-.32.52-.32.93,0l2.29,1.85a.87.87,0,0,0,.58.2h5.72c.47,0,.59.13.59.6,0,1.47,0,2.93,0,4.39a.57.57,0,0,0,.26.53c1.53,1.21,3.05,2.44,4.58,3.66a.66.66,0,0,1,.29.58V27.9c0,.6-.11.71-.7.71H1.08a.66.66,0,0,1-.7-.32Zm6-8.6c0,.1,0,.19,0,.27,0,3.88,0,7.76,0,11.64a.44.44,0,0,0,.21.4l8.3,5.9a.34.34,0,0,0,.47,0c2.78-2,5.57-3.94,8.37-5.91a.45.45,0,0,0,.23-.44V3.84c0-.1,0-.2,0-.31Zm13.7,15.92-.31.21-4.27,3c-.38.27-.43.27-.81,0-1.44-1-2.87-2-4.3-3.06-.19-.13-.29-.13-.45,0L2.13,27.5a2.13,2.13,0,0,0-.18.21H28.41Zm.73-.52L29,27.1v-14ZM1.27,27l8.14-8L1.27,13.13ZM5.49,15.05v-6L1.55,12.26Zm19.34,0,3.94-2.79L24.83,9.1ZM16.74,2.63,15.15,1.37,13.59,2.63Z"/><path class="cls-2" d="M14.7,15.74H10.31c-.11,0-.26,0-.33,0s-.28-.25-.28-.38a.69.69,0,0,1,.26-.41c.07-.07.22-.05.34-.05h8.85c.12,0,.27,0,.34.05a.76.76,0,0,1,.27.41c0,.13-.16.29-.28.38s-.23,0-.34,0Z"/><path class="cls-2" d="M14.73,8.38H10.08a.43.43,0,0,1,0-.86h9.31a.42.42,0,0,1,.39.45.4.4,0,0,1-.4.41H14.73Z"/><path class="cls-2" d="M14.73,12.06h-4.5a.51.51,0,0,1-.51-.25.42.42,0,0,1,.31-.61,1.15,1.15,0,0,1,.26,0h9.09a.39.39,0,0,1,.39.42.41.41,0,0,1-.37.44H14.73Z"/></svg>