<svg width="22" height="24" viewBox="0 0 22 24" fill="none" xmlns="http://www.w3.org/2000/svg">
<path d="M21.975 12C21.975 18.6274 17.0557 24 10.9875 24C4.91925 24 0 18.6274 0 12C0 5.37256 4.91925 0 10.9875 0C17.0557 0 21.975 5.37256 21.975 12ZM9.71658 18.3539L17.8686 9.45068C18.1454 9.14835 18.1454 8.65814 17.8686 8.35582L16.8661 7.26097C16.5893 6.9586 16.1405 6.9586 15.8636 7.26097L9.21532 14.5218L6.1114 11.1319C5.83458 10.8296 5.38574 10.8296 5.10888 11.1319L4.1064 12.2267C3.82959 12.5291 3.82959 13.0193 4.1064 13.3216L8.71406 18.3539C8.99092 18.6562 9.43972 18.6562 9.71658 18.3539Z" fill="#FF3366"/>
</svg>
