<svg id="Layer_1" data-name="Layer 1" xmlns="http://www.w3.org/2000/svg" width="25.25" height="27.93" viewBox="0 0 25.25 27.93"><defs><style>.cls-1{fill:#f36;}</style></defs><title>gave</title><path class="cls-1" d="M1.77,15.22H1.05a1,1,0,0,1-1-1v-7A1,1,0,0,1,1.1,6.12H7.23l0,0L7,5.92A6.66,6.66,0,0,1,4.91,4.31a2.13,2.13,0,0,1,0-2.8A3.45,3.45,0,0,1,7.9,0a3.56,3.56,0,0,1,2.26,1.13,11.05,11.05,0,0,1,2.17,3.16l.29.6.15-.31a13,13,0,0,1,1.91-3A4.85,4.85,0,0,1,16.41.25a2.91,2.91,0,0,1,2.45,0,4.19,4.19,0,0,1,1.46,1.15,2.12,2.12,0,0,1,0,2.85,11,11,0,0,1-1.51,1.29c-.25.2-.55.32-.83.54h6.1a1,1,0,0,1,1.16,1.15v6.81a1,1,0,0,1-1.17,1.14h-.59c0,.12,0,.23,0,.34V26.74c0,.83-.36,1.19-1.18,1.19H2.93c-.79,0-1.16-.36-1.16-1.17,0-3.61,0-7.23,0-10.84ZM10.7,7.85V26.19h3.85V7.85Zm-1.76,7.4H3.5v11H8.94Zm7.36,0V26.19h5.45V15.25Zm7.22-1.76V7.86H16.3v5.63ZM1.73,7.85v5.64H8.94V7.85ZM14.18,5.66a13.92,13.92,0,0,0,4.38-2A3.25,3.25,0,0,0,19,3.24a.5.5,0,0,0,0-.7c-.95-1.11-1.77-1-2.57-.3a5.93,5.93,0,0,0-.44.43A12,12,0,0,0,14.18,5.66Zm-3.09,0c-.14-.3-.24-.53-.36-.74A8.54,8.54,0,0,0,8.79,2.23c-.86-.76-1.68-.7-2.55.3a.52.52,0,0,0,0,.73,4.22,4.22,0,0,0,.58.54A15.59,15.59,0,0,0,11.09,5.71Z"/></svg>