<svg id="Layer_1" data-name="Layer 1" xmlns="http://www.w3.org/2000/svg" width="26.04" height="32.67" viewBox="0 0 26.04 32.67"><defs><style>.cls-1{fill:#f36;}</style></defs><title>ipad</title><path class="cls-1" d="M23.8,0c.18.05.35.09.52.15A2.53,2.53,0,0,1,26,2.56V30.12a2.5,2.5,0,0,1-2.57,2.55H2.54A2.5,2.5,0,0,1,0,30.15V2.56A2.54,2.54,0,0,1,2.06.06.85.85,0,0,0,2.23,0ZM25,16.37V2.78A1.56,1.56,0,0,0,23.27,1H2.78A1.56,1.56,0,0,0,1,2.8Q1,16.36,1,29.91a1.67,1.67,0,0,0,1.75,1.77c6.86,0,13.71,0,20.57,0A1.53,1.53,0,0,0,25,30Z"/><path class="cls-1" d="M23.73,2.19V27.92H2.32V2.19ZM3.35,3.2V26.9H22.69V3.2Z"/><path class="cls-1" d="M13.78,29.86a.77.77,0,0,1-.77.76.77.77,0,1,1,0-1.53A.75.75,0,0,1,13.78,29.86Z"/><path class="cls-1" d="M6.07,7.12v-1H20v1Z"/><path class="cls-1" d="M20,9v1H6.09V9Z"/><path class="cls-1" d="M6.08,12.74v-1H20v1Z"/><path class="cls-1" d="M6.08,15.55v-1H20v1Z"/><path class="cls-1" d="M20,18.37H6.09v-1H20Z"/><path class="cls-1" d="M20,21.17H6.09v-1H20Z"/><path class="cls-1" d="M20,24H6.09V23H20Z"/></svg>