<svg id="Layer_1" data-name="Layer 1" xmlns="http://www.w3.org/2000/svg" width="27.38" height="27.15" viewBox="0 0 27.38 27.15"><defs><style>.cls-1{fill:#f36;}</style></defs><title>rabat</title><path class="cls-1" d="M0,15.5v-.26a5.74,5.74,0,0,1,.35-.47C1.19,13.84,2,12.91,2.9,12A.3.3,0,0,0,3,11.58Q2.14,10,1.36,8.4a.61.61,0,0,1,.43-1l3.8-1a.3.3,0,0,0,.27-.31c.12-1.18.25-2.36.39-3.53.07-.58.38-.77.93-.59,1.22.4,2.44.79,3.65,1.2a.37.37,0,0,0,.47-.15C12,2.14,12.76,1.23,13.5.33a.62.62,0,0,1,1.1,0l2.47,3a.28.28,0,0,0,.38.11l3.42-1.13a.62.62,0,0,1,.89.57c.14,1.3.29,2.6.43,3.91,0,.19.11.26.29.31,1.14.28,2.27.57,3.41.87.56.14.72.5.47,1-.57,1.16-1.14,2.32-1.72,3.47a.31.31,0,0,0,.06.41l2.39,2.56c.43.46.38.82-.16,1.15l-3.32,2a.28.28,0,0,0-.16.34c.22,1.18.43,2.36.64,3.55a.61.61,0,0,1-.69.79l-3.92-.11a.31.31,0,0,0-.36.22c-.44,1.08-.89,2.16-1.34,3.23-.25.6-.59.7-1.13.33-1-.72-2.12-1.44-3.17-2.17a.28.28,0,0,0-.39,0c-1,.68-1.93,1.35-2.9,2-.5.35-.86.25-1.1-.31l-1.5-3.57c-.06-.14-.12-.23-.31-.22l-3.55.13c-.59,0-.86-.27-.76-.85.23-1.27.44-2.54.67-3.81a.31.31,0,0,0-.18-.38c-1-.58-2-1.17-3-1.77A3.29,3.29,0,0,1,0,15.5Zm10.06,3.87a.9.9,0,0,0,.72-.47q3.11-4.26,6.23-8.51c.33-.45.66-.89,1-1.34a.81.81,0,0,0,0-.93.73.73,0,0,0-.82-.31,1.24,1.24,0,0,0-.57.44c-2.38,3.22-4.74,6.46-7.11,9.7a1.5,1.5,0,0,0-.22.39A.76.76,0,0,0,10.06,19.37Zm4.36-2.6a2.62,2.62,0,0,0,1.39,2.29A2.68,2.68,0,0,0,18.64,19,2.88,2.88,0,0,0,20,16.25a2.74,2.74,0,0,0-3.5-2.58A2.9,2.9,0,0,0,14.42,16.77ZM13,10.65c0-.23,0-.48-.09-.71a2.69,2.69,0,0,0-2.36-2.18A2.75,2.75,0,0,0,7.74,9.25,3.25,3.25,0,0,0,7.43,11a2.72,2.72,0,0,0,2.67,2.55A2.82,2.82,0,0,0,13,10.65Z"/><path class="cls-1" d="M18.3,16.57a5.36,5.36,0,0,1-.33.9.88.88,0,0,1-1.5.06,1.93,1.93,0,0,1-.08-2,.9.9,0,0,1,1.51-.07,1.56,1.56,0,0,1,.33,1.1Z"/><path class="cls-1" d="M11.29,10.7a4.13,4.13,0,0,1-.3.92.9.9,0,0,1-1.55.05,1.94,1.94,0,0,1-.07-1.95.91.91,0,0,1,1.56-.07A2.16,2.16,0,0,1,11.29,10.7Z"/></svg>